# xmcd
#
# Track frame offsets:
#	150
#	24350
#	44303
#	63753
#	76249
#	102947
#	128331
#	146870
#	156361
#	168373
#	182162
#	199837
#	221943
#	238127
#	255619
#	273669
#	292267
#	304100
#	317919
#	331585
#
# Disc length: 4603 seconds
# Revision: 2
# Processed by: cddbd v1.5.2PL0 Copyright (c) Steve Scherf et al.
# Submitted via: dBpowerAMP V12.0
#
DISCID=2911f914
DTITLE=Gary Moore - Alle 40 Goed
DYEAR=2012
DGENRE=Blues
TTITLE0=Over The Hills And Far Away
TTITLE1=Oh Pretty Woman
TTITLE2=After The War
TTITLE3=Mean Cruel Woman
TTITLE4=The Loner
TTITLE5=Military Man
TTITLE6=Need Your Love So Bad
TTITLE7=Long Grey Mare
TTITLE8=Moving On
TTITLE9=Left Me With The Blues
TTITLE10=Stop Messin' Around
TTITLE11=I Have Found My Love In You
TTITLE12=Movin' On Down The Road
TTITLE13=Only Fool In Town
TTITLE14=One Day
TTITLE15=Further On Up The Road
TTITLE16=The Same Way
TTITLE17=Don't Start Me To Talkin'
TTITLE18=The Supernatural
TTITLE19=One Good Reason
EXTD=
EXTT0=
EXTT1=
EXTT2=
EXTT3=
EXTT4=
EXTT5=
EXTT6=
EXTT7=
EXTT8=
EXTT9=
EXTT10=
EXTT11=
EXTT12=
EXTT13=
EXTT14=
EXTT15=
EXTT16=
EXTT17=
EXTT18=
EXTT19=
PLAYORDER=
